<svg width="4003" height="867" xmlns="http://www.w3.org/2000/svg" xmlns:xlink="http://www.w3.org/1999/xlink" xml:space="preserve" overflow="hidden"><defs><linearGradient x1="256.011" y1="643.332" x2="4154.71" y2="643.332" gradientUnits="userSpaceOnUse" spreadMethod="reflect" id="fill0"><stop offset="0" stop-color="#595959"/><stop offset="0.00840336" stop-color="#5A5A5A"/><stop offset="0.0168067" stop-color="#5C5C5C"/><stop offset="0.0252101" stop-color="#5E5E5E"/><stop offset="0.0336134" stop-color="#606060"/><stop offset="0.0420168" stop-color="#626262"/><stop offset="0.0504202" stop-color="#646464"/><stop offset="0.0588235" stop-color="#656565"/><stop offset="0.0672269" stop-color="#676767"/><stop offset="0.0756303" stop-color="#696969"/><stop offset="0.0840336" stop-color="#6B6B6B"/><stop offset="0.092437" stop-color="#6C6C6C"/><stop offset="0.10084" stop-color="#6E6E6E"/><stop offset="0.109244" stop-color="#707070"/><stop offset="0.117647" stop-color="#727272"/><stop offset="0.12605" stop-color="#737373"/><stop offset="0.134454" stop-color="#757575"/><stop offset="0.142857" stop-color="#777777"/><stop offset="0.151261" stop-color="#787878"/><stop offset="0.159664" stop-color="#7A7A7A"/><stop offset="0.168067" stop-color="#7C7C7C"/><stop offset="0.176471" stop-color="#7D7D7D"/><stop offset="0.184874" stop-color="#7F7F7F"/><stop offset="0.193277" stop-color="#808080"/><stop offset="0.201681" stop-color="#828282"/><stop offset="0.210084" stop-color="#838383"/><stop offset="0.218487" stop-color="#858585"/><stop offset="0.226891" stop-color="#868686"/><stop offset="0.235294" stop-color="#888888"/><stop offset="0.243697" stop-color="#898989"/><stop offset="0.252101" stop-color="#8B8B8B"/><stop offset="0.260504" stop-color="#8C8C8C"/><stop offset="0.268908" stop-color="#8E8E8E"/><stop offset="0.277311" stop-color="#8F8F8F"/><stop offset="0.285714" stop-color="#919191"/><stop offset="0.294118" stop-color="#929292"/><stop offset="0.302521" stop-color="#939393"/><stop offset="0.310924" stop-color="#959595"/><stop offset="0.319328" stop-color="#969696"/><stop offset="0.327731" stop-color="#989898"/><stop offset="0.336134" stop-color="#999999"/><stop offset="0.344538" stop-color="#9A9A9A"/><stop offset="0.352941" stop-color="#9B9B9B"/><stop offset="0.361345" stop-color="#9D9D9D"/><stop offset="0.369748" stop-color="#9E9E9E"/><stop offset="0.378151" stop-color="#9F9F9F"/><stop offset="0.386555" stop-color="#A0A0A0"/><stop offset="0.394958" stop-color="#A2A2A2"/><stop offset="0.403361" stop-color="#A3A3A3"/><stop offset="0.411765" stop-color="#A4A4A4"/><stop offset="0.420168" stop-color="#A5A5A5"/><stop offset="0.428571" stop-color="#A6A6A6"/><stop offset="0.436975" stop-color="#A8A8A8"/><stop offset="0.445378" stop-color="#A9A9A9"/><stop offset="0.453782" stop-color="#AAAAAA"/><stop offset="0.462185" stop-color="#ABABAB"/><stop offset="0.470588" stop-color="#ACACAC"/><stop offset="0.478992" stop-color="#ADADAD"/><stop offset="0.487395" stop-color="#AEAEAE"/><stop offset="0.495798" stop-color="#AFAFAF"/><stop offset="0.504202" stop-color="#B0B0B0"/><stop offset="0.512605" stop-color="#B1B1B1"/><stop offset="0.521008" stop-color="#B2B2B2"/><stop offset="0.529412" stop-color="#B3B3B3"/><stop offset="0.537815" stop-color="#B4B4B4"/><stop offset="0.546219" stop-color="#B5B5B5"/><stop offset="0.554622" stop-color="#B6B6B6"/><stop offset="0.563025" stop-color="#B7B7B7"/><stop offset="0.571429" stop-color="#B8B8B8"/><stop offset="0.579832" stop-color="#B9B9B9"/><stop offset="0.588235" stop-color="#BABABA"/><stop offset="0.596639" stop-color="#BBBBBB"/><stop offset="0.605042" stop-color="#BBBBBB"/><stop offset="0.613445" stop-color="#BCBCBC"/><stop offset="0.621849" stop-color="#BDBDBD"/><stop offset="0.630252" stop-color="#BEBEBE"/><stop offset="0.638655" stop-color="#BFBFBF"/><stop offset="0.647059" stop-color="#BFBFBF"/><stop offset="0.655462" stop-color="#C0C0C0"/><stop offset="0.663866" stop-color="#C1C1C1"/><stop offset="0.672269" stop-color="#C2C2C2"/><stop offset="0.680672" stop-color="#C2C2C2"/><stop offset="0.689076" stop-color="#C3C3C3"/><stop offset="0.697479" stop-color="#C4C4C4"/><stop offset="0.705882" stop-color="#C4C4C4"/><stop offset="0.714286" stop-color="#C5C5C5"/><stop offset="0.722689" stop-color="#C6C6C6"/><stop offset="0.731092" stop-color="#C6C6C6"/><stop offset="0.739496" stop-color="#C7C7C7"/><stop offset="0.747899" stop-color="#C7C7C7"/><stop offset="0.756303" stop-color="#C8C8C8"/><stop offset="0.764706" stop-color="#C9C9C9"/><stop offset="0.773109" stop-color="#C9C9C9"/><stop offset="0.781513" stop-color="#CACACA"/><stop offset="0.789916" stop-color="#CACACA"/><stop offset="0.798319" stop-color="#CBCBCB"/><stop offset="0.806723" stop-color="#CBCBCB"/><stop offset="0.815126" stop-color="#CBCBCB"/><stop offset="0.823529" stop-color="#CCCCCC"/><stop offset="0.831933" stop-color="#CCCCCC"/><stop offset="0.840336" stop-color="#CDCDCD"/><stop offset="0.84874" stop-color="#CDCDCD"/><stop offset="0.857143" stop-color="#CDCDCD"/><stop offset="0.865546" stop-color="#CECECE"/><stop offset="0.87395" stop-color="#CECECE"/><stop offset="0.882353" stop-color="#CECECE"/><stop offset="0.890756" stop-color="#CFCFCF"/><stop offset="0.89916" stop-color="#CFCFCF"/><stop offset="0.907563" stop-color="#CFCFCF"/><stop offset="0.915966" stop-color="#CFCFCF"/><stop offset="0.92437" stop-color="#D0D0D0"/><stop offset="0.932773" stop-color="#D0D0D0"/><stop offset="0.941176" stop-color="#D0D0D0"/><stop offset="0.94958" stop-color="#D0D0D0"/><stop offset="0.957983" stop-color="#D0D0D0"/><stop offset="0.966387" stop-color="#D0D0D0"/><stop offset="0.97479" stop-color="#D0D0D0"/><stop offset="0.983193" stop-color="#D0D0D0"/><stop offset="0.991597" stop-color="#D0D0D0"/><stop offset="1" stop-color="#D1D1D1"/></linearGradient><linearGradient x1="1347.37" y1="1013.42" x2="3084.46" y2="1013.42" gradientUnits="userSpaceOnUse" spreadMethod="reflect" id="fill1"><stop offset="0" stop-color="#595959"/><stop offset="0.0107527" stop-color="#5A5A5A"/><stop offset="0.0215054" stop-color="#5C5C5C"/><stop offset="0.0322581" stop-color="#5E5E5E"/><stop offset="0.0430108" stop-color="#606060"/><stop offset="0.0537634" stop-color="#626262"/><stop offset="0.0645161" stop-color="#646464"/><stop offset="0.0752688" stop-color="#656565"/><stop offset="0.0860215" stop-color="#676767"/><stop offset="0.0967742" stop-color="#696969"/><stop offset="0.107527" stop-color="#6B6B6B"/><stop offset="0.11828" stop-color="#6C6C6C"/><stop offset="0.129032" stop-color="#6E6E6E"/><stop offset="0.139785" stop-color="#707070"/><stop offset="0.150538" stop-color="#717171"/><stop offset="0.16129" stop-color="#737373"/><stop offset="0.172043" stop-color="#757575"/><stop offset="0.182796" stop-color="#767676"/><stop offset="0.193548" stop-color="#787878"/><stop offset="0.204301" stop-color="#797979"/><stop offset="0.215054" stop-color="#7B7B7B"/><stop offset="0.225806" stop-color="#7C7C7C"/><stop offset="0.236559" stop-color="#7E7E7E"/><stop offset="0.247312" stop-color="#7F7F7F"/><stop offset="0.258065" stop-color="#818181"/><stop offset="0.268817" stop-color="#828282"/><stop offset="0.27957" stop-color="#848484"/><stop offset="0.290323" stop-color="#858585"/><stop offset="0.301075" stop-color="#868686"/><stop offset="0.311828" stop-color="#888888"/><stop offset="0.322581" stop-color="#898989"/><stop offset="0.333333" stop-color="#8B8B8B"/><stop offset="0.344086" stop-color="#8C8C8C"/><stop offset="0.354839" stop-color="#8D8D8D"/><stop offset="0.365591" stop-color="#8E8E8E"/><stop offset="0.376344" stop-color="#909090"/><stop offset="0.387097" stop-color="#919191"/><stop offset="0.397849" stop-color="#929292"/><stop offset="0.408602" stop-color="#939393"/><stop offset="0.419355" stop-color="#959595"/><stop offset="0.430108" stop-color="#969696"/><stop offset="0.44086" stop-color="#979797"/><stop offset="0.451613" stop-color="#989898"/><stop offset="0.462366" stop-color="#999999"/><stop offset="0.473118" stop-color="#9A9A9A"/><stop offset="0.483871" stop-color="#9B9B9B"/><stop offset="0.494624" stop-color="#9C9C9C"/><stop offset="0.505376" stop-color="#9D9D9D"/><stop offset="0.516129" stop-color="#9E9E9E"/><stop offset="0.526882" stop-color="#9F9F9F"/><stop offset="0.537634" stop-color="#A0A0A0"/><stop offset="0.548387" stop-color="#A1A1A1"/><stop offset="0.55914" stop-color="#A2A2A2"/><stop offset="0.569892" stop-color="#A3A3A3"/><stop offset="0.580645" stop-color="#A4A4A4"/><stop offset="0.591398" stop-color="#A5A5A5"/><stop offset="0.602151" stop-color="#A6A6A6"/><stop offset="0.612903" stop-color="#A7A7A7"/><stop offset="0.623656" stop-color="#A7A7A7"/><stop offset="0.634409" stop-color="#A8A8A8"/><stop offset="0.645161" stop-color="#A9A9A9"/><stop offset="0.655914" stop-color="#AAAAAA"/><stop offset="0.666667" stop-color="#ABABAB"/><stop offset="0.677419" stop-color="#ABABAB"/><stop offset="0.688172" stop-color="#ACACAC"/><stop offset="0.698925" stop-color="#ADADAD"/><stop offset="0.709677" stop-color="#ADADAD"/><stop offset="0.72043" stop-color="#AEAEAE"/><stop offset="0.731183" stop-color="#AEAEAE"/><stop offset="0.741935" stop-color="#AFAFAF"/><stop offset="0.752688" stop-color="#B0B0B0"/><stop offset="0.763441" stop-color="#B0B0B0"/><stop offset="0.774194" stop-color="#B1B1B1"/><stop offset="0.784946" stop-color="#B1B1B1"/><stop offset="0.795699" stop-color="#B2B2B2"/><stop offset="0.806452" stop-color="#B2B2B2"/><stop offset="0.817204" stop-color="#B3B3B3"/><stop offset="0.827957" stop-color="#B3B3B3"/><stop offset="0.83871" stop-color="#B3B3B3"/><stop offset="0.849462" stop-color="#B4B4B4"/><stop offset="0.860215" stop-color="#B4B4B4"/><stop offset="0.870968" stop-color="#B4B4B4"/><stop offset="0.88172" stop-color="#B5B5B5"/><stop offset="0.892473" stop-color="#B5B5B5"/><stop offset="0.903226" stop-color="#B5B5B5"/><stop offset="0.913979" stop-color="#B6B6B6"/><stop offset="0.924731" stop-color="#B6B6B6"/><stop offset="0.935484" stop-color="#B6B6B6"/><stop offset="0.946237" stop-color="#B6B6B6"/><stop offset="0.956989" stop-color="#B6B6B6"/><stop offset="0.967742" stop-color="#B6B6B6"/><stop offset="0.978495" stop-color="#B6B6B6"/><stop offset="0.989247" stop-color="#B6B6B6"/><stop offset="1" stop-color="#B7B7B7"/></linearGradient></defs><g transform="translate(-223 -214)"><path d="M1305.71 516.252 1249.3 676.555 1362.11 676.555ZM1748.53 490.709 1748.53 602.248C1756.53 604.256 1764.79 605.576 1773.31 606.207 1781.83 606.838 1790.1 607.125 1798.1 607.068 1817.42 607.068 1833.17 602.076 1845.35 592.093 1857.53 582.109 1863.81 567.134 1864.2 547.168 1864.2 538.231 1862.65 530.285 1859.55 523.328 1856.45 516.371 1851.81 510.318 1845.61 505.169 1839.1 500.349 1831.47 496.735 1822.72 494.325 1813.97 491.915 1803.92 490.71 1792.59 490.709ZM3736.13 381.404 4130.96 381.404 4130.96 502.406 4002.3 502.406 4002.3 869.797 3864.79 869.797 3864.79 502.406 3736.13 502.406ZM3225.89 381.404 3363.41 381.404 3363.41 557.531 3536.87 557.531 3536.87 381.404 3674.38 381.404 3674.38 869.797 3536.87 869.797 3536.87 678.533 3363.41 678.533 3363.41 869.797 3225.89 869.797ZM2452.89 381.404 2590.41 381.404 2590.41 869.797 2452.89 869.797ZM2067.89 381.404 2205.41 381.404 2205.41 748.795 2390.48 748.795 2390.48 869.797 2067.89 869.797ZM1617.89 381.404 1793.28 381.404C1828.09 381.182 1860.93 386.284 1891.82 396.709 1922.71 407.134 1947.91 424.208 1967.4 447.933 1986.9 471.657 1996.96 503.359 1997.58 543.037 1997.21 570.403 1990.05 596.037 1976.1 619.939 1962.15 643.841 1943.64 662.924 1920.58 677.188L2027.17 869.797 1882.76 869.797 1807.05 713.622C1803.92 713.951 1800.71 714.152 1797.41 714.224 1794.11 714.295 1790.9 714.324 1787.77 714.309 1776.07 714.195 1762.99 713.049 1748.53 710.872L1748.53 869.797 1617.89 869.797ZM1234.85 381.404 1381.37 381.404 1573.98 869.797 1430.21 869.797 1399.95 784.485 1211.47 784.485 1181.89 869.797 1042.93 869.797ZM679.134 381.404 1073.96 381.404 1073.96 502.406 945.304 502.406 945.304 869.797 807.79 869.797 807.79 502.406 679.134 502.406ZM463.099 371.084C506.838 371.083 544.59 382.083 576.354 404.085 608.119 426.086 629.523 459.092 640.565 503.102L516.804 527.189C513.248 513.195 506.593 501.955 496.839 493.466 487.084 484.978 474.919 480.619 460.344 480.39 448.395 480.361 437.521 483.515 427.723 489.853 417.925 496.191 412.732 505.883 412.144 518.93 412.13 523.06 412.675 526.845 413.779 530.286 414.884 533.727 416.634 536.824 419.03 539.576 423.85 545.77 431.424 550.588 441.753 554.029 446.903 556.079 452.956 558 459.914 559.792 466.871 561.585 474.819 563.334 483.756 565.04L497.528 567.793C524.287 572.984 549.019 581.718 571.725 593.995 594.431 606.272 612.742 622.602 626.66 642.985 640.577 663.367 647.733 688.312 648.128 717.82 647.585 752.522 638.357 781.935 620.444 806.059 602.531 830.183 579.189 848.537 550.419 861.121 521.648 873.705 490.705 880.037 457.59 880.117 411.907 880.204 371.694 869.032 336.95 846.6 302.206 824.169 278.681 789.959 266.374 743.972L392.893 720.573C397.906 735.613 406.277 747.685 418.006 756.789 429.735 765.894 443.618 770.568 459.656 770.811 472.768 770.955 484.932 767.915 496.151 761.693 507.369 755.47 513.337 745.205 514.054 730.896 514.169 721.949 511.873 714.379 507.168 708.185 500.038 700.357 489.336 694.335 475.063 690.12 460.789 685.905 448.538 682.98 438.31 681.346L423.85 678.593C398.027 673.992 374.179 665.377 352.306 652.747 330.434 640.117 312.802 623.55 299.411 603.044 286.02 582.538 279.136 558.171 278.758 529.942 279.288 496.582 288.236 468.078 305.601 444.429 322.966 420.78 345.569 402.672 373.409 390.105 401.248 377.538 431.145 371.198 463.099 371.084ZM2917.7 367.644C2968.34 367.629 3014.08 379.346 3054.91 402.797 3095.75 426.247 3127.04 461.519 3148.79 508.613L3013.3 545.798C2991.18 509.187 2959.08 490.824 2917.01 490.709 2878.77 491.672 2848.88 504.724 2827.34 529.867 2805.79 555.009 2794.84 586.466 2794.46 624.238 2794.87 662.099 2806.28 694.003 2828.71 719.951 2851.15 745.898 2882.18 759.412 2921.83 760.492 2943.9 760.506 2964.59 755.138 2983.9 744.388 3003.22 733.638 3016.68 717.42 3024.31 695.733L2926.65 695.733 2926.65 587.115 3168.05 587.115 3168.05 646.924C3167.57 694.256 3156.38 735.605 3134.48 770.971 3112.57 806.336 3082.84 833.865 3045.27 853.557 3007.7 873.248 2965.18 883.248 2917.7 883.557 2868.26 883.219 2823.59 872.361 2783.69 850.985 2743.78 829.609 2712.02 799.746 2688.4 761.397 2664.79 723.048 2652.7 678.245 2652.13 626.988 2652.61 576.555 2664.34 531.916 2687.33 493.071 2710.33 454.226 2741.73 423.716 2781.55 401.541 2821.36 379.366 2866.75 368.067 2917.7 367.644Z" fill="url(#fill0)" fill-rule="evenodd"/><text fill="#000000" fill-opacity="0" font-family="Arial,Arial_MSFontService,sans-serif" font-size="515.914" x="266.374" y="819.068">STARLIGHT</text><path d="M3072.86 1022.12C3071.83 1022.53 3070.73 1022.84 3069.56 1023.05 3068.38 1023.27 3066.42 1023.5 3063.66 1023.74 3059.39 1024.12 3056.38 1024.6 3054.62 1025.18 3052.87 1025.76 3051.54 1026.69 3050.65 1027.96 3049.76 1029.23 3049.31 1030.63 3049.31 1032.17 3049.31 1034.22 3050.02 1035.91 3051.44 1037.24 3052.86 1038.56 3054.88 1039.22 3057.5 1039.22 3059.93 1039.22 3062.27 1038.58 3064.51 1037.3 3066.76 1036.01 3068.52 1034.22 3069.82 1031.93 3071.12 1029.63 3072.13 1026.36 3072.86 1022.12ZM2903.86 1022.12C2902.83 1022.53 2901.73 1022.84 2900.56 1023.05 2899.38 1023.27 2897.42 1023.5 2894.66 1023.74 2890.39 1024.12 2887.38 1024.6 2885.62 1025.18 2883.87 1025.76 2882.54 1026.69 2881.65 1027.96 2880.76 1029.23 2880.31 1030.63 2880.31 1032.17 2880.31 1034.22 2881.02 1035.91 2882.44 1037.24 2883.86 1038.56 2885.88 1039.22 2888.5 1039.22 2890.93 1039.22 2893.27 1038.58 2895.51 1037.3 2897.75 1036.01 2899.52 1034.22 2900.82 1031.93 2902.12 1029.63 2903.13 1026.36 2903.86 1022.12ZM2839.86 1022.12C2838.83 1022.53 2837.73 1022.84 2836.56 1023.05 2835.38 1023.27 2833.42 1023.5 2830.66 1023.74 2826.39 1024.12 2823.38 1024.6 2821.62 1025.18 2819.87 1025.76 2818.54 1026.69 2817.65 1027.96 2816.76 1029.23 2816.31 1030.63 2816.31 1032.17 2816.31 1034.22 2817.02 1035.91 2818.44 1037.24 2819.86 1038.56 2821.88 1039.22 2824.5 1039.22 2826.93 1039.22 2829.27 1038.58 2831.51 1037.3 2833.75 1036.01 2835.52 1034.22 2836.82 1031.93 2838.12 1029.63 2839.13 1026.36 2839.86 1022.12ZM2724.86 1022.12C2723.83 1022.53 2722.73 1022.84 2721.56 1023.05 2720.38 1023.27 2718.42 1023.5 2715.66 1023.74 2711.39 1024.12 2708.38 1024.6 2706.62 1025.18 2704.87 1025.76 2703.54 1026.69 2702.65 1027.96 2701.76 1029.23 2701.31 1030.63 2701.31 1032.17 2701.31 1034.22 2702.02 1035.91 2703.44 1037.24 2704.86 1038.56 2706.88 1039.22 2709.5 1039.22 2711.93 1039.22 2714.27 1038.58 2716.51 1037.3 2718.75 1036.01 2720.52 1034.22 2721.82 1031.93 2723.12 1029.63 2724.13 1026.36 2724.86 1022.12ZM2426.86 1022.12C2425.83 1022.53 2424.73 1022.84 2423.56 1023.05 2422.38 1023.27 2420.42 1023.5 2417.66 1023.74 2413.39 1024.12 2410.38 1024.6 2408.62 1025.18 2406.87 1025.76 2405.54 1026.69 2404.65 1027.96 2403.76 1029.23 2403.31 1030.63 2403.31 1032.17 2403.31 1034.22 2404.02 1035.91 2405.44 1037.24 2406.86 1038.56 2408.88 1039.22 2411.5 1039.22 2413.93 1039.22 2416.27 1038.58 2418.51 1037.3 2420.76 1036.01 2422.52 1034.22 2423.82 1031.93 2425.12 1029.63 2426.13 1026.36 2426.86 1022.12ZM2266.86 1022.12C2265.83 1022.53 2264.73 1022.84 2263.56 1023.05 2262.38 1023.27 2260.42 1023.5 2257.66 1023.74 2253.39 1024.12 2250.38 1024.6 2248.62 1025.18 2246.87 1025.76 2245.54 1026.69 2244.65 1027.96 2243.76 1029.23 2243.31 1030.63 2243.31 1032.17 2243.31 1034.22 2244.02 1035.91 2245.44 1037.24 2246.86 1038.56 2248.88 1039.22 2251.5 1039.22 2253.93 1039.22 2256.27 1038.58 2258.51 1037.3 2260.76 1036.01 2262.52 1034.22 2263.82 1031.93 2265.12 1029.63 2266.13 1026.36 2266.86 1022.12ZM2192.86 1022.12C2191.83 1022.53 2190.73 1022.84 2189.56 1023.05 2188.38 1023.27 2186.42 1023.5 2183.66 1023.74 2179.39 1024.12 2176.38 1024.6 2174.62 1025.18 2172.87 1025.76 2171.54 1026.69 2170.65 1027.96 2169.76 1029.23 2169.31 1030.63 2169.31 1032.17 2169.31 1034.22 2170.02 1035.91 2171.44 1037.24 2172.86 1038.56 2174.88 1039.22 2177.5 1039.22 2179.93 1039.22 2182.27 1038.58 2184.51 1037.3 2186.76 1036.01 2188.52 1034.22 2189.82 1031.93 2191.12 1029.63 2192.13 1026.36 2192.86 1022.12ZM2050.86 1022.12C2049.83 1022.53 2048.73 1022.84 2047.56 1023.05 2046.38 1023.27 2044.42 1023.5 2041.66 1023.74 2037.39 1024.12 2034.38 1024.6 2032.62 1025.18 2030.87 1025.76 2029.54 1026.69 2028.65 1027.96 2027.76 1029.23 2027.31 1030.63 2027.31 1032.17 2027.31 1034.22 2028.02 1035.91 2029.44 1037.24 2030.86 1038.56 2032.88 1039.22 2035.5 1039.22 2037.93 1039.22 2040.27 1038.58 2042.51 1037.3 2044.76 1036.01 2046.52 1034.22 2047.82 1031.93 2049.12 1029.63 2050.13 1026.36 2050.86 1022.12ZM1807.86 1022.12C1806.83 1022.53 1805.73 1022.84 1804.56 1023.05 1803.38 1023.27 1801.42 1023.5 1798.66 1023.74 1794.39 1024.12 1791.38 1024.6 1789.62 1025.18 1787.87 1025.76 1786.54 1026.69 1785.65 1027.96 1784.76 1029.23 1784.31 1030.63 1784.31 1032.17 1784.31 1034.22 1785.02 1035.91 1786.44 1037.24 1787.86 1038.56 1789.88 1039.22 1792.5 1039.22 1794.93 1039.22 1797.27 1038.58 1799.51 1037.3 1801.76 1036.01 1803.52 1034.22 1804.82 1031.93 1806.12 1029.63 1807.13 1026.36 1807.86 1022.12ZM1734.86 1022.12C1733.83 1022.53 1732.73 1022.84 1731.56 1023.05 1730.38 1023.27 1728.42 1023.5 1725.66 1023.74 1721.39 1024.12 1718.38 1024.6 1716.62 1025.18 1714.87 1025.76 1713.54 1026.69 1712.65 1027.96 1711.76 1029.23 1711.31 1030.63 1711.31 1032.17 1711.31 1034.22 1712.02 1035.91 1713.44 1037.24 1714.86 1038.56 1716.88 1039.22 1719.5 1039.22 1721.93 1039.22 1724.27 1038.58 1726.51 1037.3 1728.76 1036.01 1730.52 1034.22 1731.82 1031.93 1733.12 1029.63 1734.13 1026.36 1734.86 1022.12ZM1574.86 1022.12C1573.83 1022.53 1572.73 1022.84 1571.56 1023.05 1570.38 1023.27 1568.42 1023.5 1565.66 1023.74 1561.39 1024.12 1558.38 1024.6 1556.62 1025.18 1554.87 1025.76 1553.54 1026.69 1552.65 1027.96 1551.76 1029.23 1551.31 1030.63 1551.31 1032.17 1551.31 1034.22 1552.02 1035.91 1553.44 1037.24 1554.86 1038.56 1556.88 1039.22 1559.5 1039.22 1561.93 1039.22 1564.27 1038.58 1566.51 1037.3 1568.76 1036.01 1570.52 1034.22 1571.82 1031.93 1573.12 1029.63 1574.13 1026.36 1574.86 1022.12ZM1486.86 1022.12C1485.83 1022.53 1484.73 1022.84 1483.56 1023.05 1482.38 1023.27 1480.42 1023.5 1477.66 1023.74 1473.39 1024.12 1470.38 1024.6 1468.62 1025.18 1466.87 1025.76 1465.54 1026.69 1464.65 1027.96 1463.76 1029.23 1463.31 1030.63 1463.31 1032.17 1463.31 1034.22 1464.02 1035.91 1465.44 1037.24 1466.86 1038.56 1468.88 1039.22 1471.5 1039.22 1473.93 1039.22 1476.27 1038.58 1478.51 1037.3 1480.76 1036.01 1482.52 1034.22 1483.82 1031.93 1485.12 1029.63 1486.13 1026.36 1486.86 1022.12ZM2487.19 1005.95C2485.43 1005.95 2483.83 1006.34 2482.39 1007.13 2480.94 1007.91 2479.51 1009.24 2478.09 1011.12 2476.67 1012.99 2475.48 1015.38 2474.5 1018.27 2473.53 1021.16 2473.04 1023.7 2473.04 1025.89 2473.04 1028.89 2473.34 1031.25 2473.94 1032.98 2474.53 1034.71 2475.54 1036.15 2476.98 1037.3 2478.41 1038.45 2480.12 1039.02 2482.12 1039.02 2485.45 1039.02 2488.46 1037.29 2491.16 1033.83 2494.78 1029.24 2496.59 1023.57 2496.59 1016.81 2496.59 1013.41 2495.7 1010.75 2493.92 1008.83 2492.13 1006.91 2489.89 1005.95 2487.19 1005.95ZM2785.15 1005.83C2783.36 1005.83 2781.64 1006.31 2779.96 1007.27 2778.29 1008.23 2776.73 1009.69 2775.28 1011.64 2773.83 1013.6 2772.74 1015.95 2772 1018.68 2771.25 1021.4 2770.88 1023.47 2770.88 1024.88 2770.88 1027.82 2771.17 1030.04 2771.73 1031.52 2772.54 1033.6 2773.7 1035.19 2775.2 1036.28 2776.7 1037.38 2778.37 1037.93 2780.2 1037.93 2782.61 1037.93 2785 1037.08 2787.38 1035.39 2789.75 1033.7 2791.68 1031.09 2793.15 1027.55 2794.62 1024.01 2795.36 1020.63 2795.36 1017.42 2795.36 1013.88 2794.38 1011.06 2792.42 1008.97 2790.46 1006.88 2788.04 1005.83 2785.15 1005.83ZM2140.38 1005.83C2138.51 1005.83 2136.78 1006.32 2135.19 1007.31 2133.6 1008.29 2132.12 1009.77 2130.75 1011.72 2129.39 1013.68 2128.26 1016.08 2127.37 1018.92 2126.48 1021.76 2126.03 1024.23 2126.03 1026.34 2126.03 1029.55 2126.26 1031.78 2126.72 1033.02 2127.39 1034.78 2128.5 1036.2 2130.04 1037.28 2131.58 1038.36 2133.37 1038.9 2135.39 1038.9 2139.61 1038.9 2143.01 1036.53 2145.6 1031.79 2148.2 1027.04 2149.5 1022.2 2149.5 1017.26 2149.5 1013.61 2148.62 1010.79 2146.88 1008.81 2145.14 1006.82 2142.97 1005.83 2140.38 1005.83ZM1682.38 1005.83C1680.51 1005.83 1678.78 1006.32 1677.19 1007.31 1675.6 1008.29 1674.12 1009.77 1672.75 1011.72 1671.39 1013.68 1670.26 1016.08 1669.37 1018.92 1668.48 1021.76 1668.03 1024.23 1668.03 1026.34 1668.03 1029.55 1668.26 1031.78 1668.72 1033.02 1669.39 1034.78 1670.5 1036.2 1672.04 1037.28 1673.58 1038.36 1675.37 1038.9 1677.39 1038.9 1681.61 1038.9 1685.01 1036.53 1687.6 1031.79 1690.2 1027.04 1691.5 1022.2 1691.5 1017.26 1691.5 1013.61 1690.62 1010.79 1688.88 1008.81 1687.14 1006.82 1684.97 1005.83 1682.38 1005.83ZM1979.77 1005.63C1976.63 1005.63 1973.78 1006.71 1971.2 1008.87 1968.62 1011.03 1966.69 1014.28 1965.42 1018.63L1989.58 1018.63C1989.6 1017.88 1989.62 1017.34 1989.62 1017.01 1989.62 1013.34 1988.7 1010.52 1986.86 1008.56 1985.02 1006.61 1982.66 1005.63 1979.77 1005.63ZM1869.77 1005.63C1866.63 1005.63 1863.78 1006.71 1861.2 1008.87 1858.62 1011.03 1856.69 1014.28 1855.42 1018.63L1879.58 1018.63C1879.6 1017.88 1879.62 1017.34 1879.62 1017.01 1879.62 1013.34 1878.7 1010.52 1876.86 1008.56 1875.02 1006.61 1872.66 1005.63 1869.77 1005.63ZM2644.61 1005.59C2642.31 1005.59 2640.22 1006.13 2638.33 1007.23 2636.43 1008.32 2634.72 1009.92 2633.2 1012.03 2631.67 1014.14 2630.55 1016.59 2629.83 1019.38 2629.12 1022.18 2628.76 1024.67 2628.76 1026.86 2628.76 1030.91 2629.73 1033.99 2631.68 1036.08 2633.62 1038.18 2636.1 1039.22 2639.1 1039.22 2640.66 1039.22 2642.22 1038.91 2643.76 1038.27 2645.3 1037.64 2646.73 1036.67 2648.05 1035.37 2649.38 1034.08 2650.5 1032.6 2651.44 1030.93 2652.37 1029.27 2653.12 1027.48 2653.69 1025.57 2654.52 1022.89 2654.94 1020.32 2654.94 1017.86 2654.94 1013.97 2653.96 1010.95 2652 1008.81 2650.04 1006.66 2647.58 1005.59 2644.61 1005.59ZM2534.61 1005.59C2532.31 1005.59 2530.22 1006.13 2528.33 1007.23 2526.43 1008.32 2524.72 1009.92 2523.2 1012.03 2521.67 1014.14 2520.55 1016.59 2519.83 1019.38 2519.12 1022.18 2518.76 1024.67 2518.76 1026.86 2518.76 1030.91 2519.73 1033.99 2521.68 1036.08 2523.62 1038.18 2526.1 1039.22 2529.1 1039.22 2530.66 1039.22 2532.22 1038.91 2533.76 1038.27 2535.3 1037.64 2536.73 1036.67 2538.05 1035.37 2539.38 1034.08 2540.5 1032.6 2541.44 1030.93 2542.37 1029.27 2543.12 1027.48 2543.69 1025.57 2544.52 1022.89 2544.94 1020.32 2544.94 1017.86 2544.94 1013.97 2543.96 1010.95 2542 1008.81 2540.04 1006.66 2537.58 1005.59 2534.61 1005.59ZM2990.84 1000.88 2998.18 1000.88 2989.18 1043.92 2981.84 1043.92ZM2312.13 1000.88 2319.46 1000.88 2313.71 1028.4C2313.22 1030.7 2312.98 1032.48 2312.98 1033.75 2312.98 1035.37 2313.47 1036.64 2314.46 1037.54 2315.44 1038.45 2316.89 1038.9 2318.81 1038.9 2320.87 1038.9 2322.87 1038.4 2324.83 1037.4 2326.79 1036.4 2328.48 1035.05 2329.9 1033.35 2331.32 1031.64 2332.47 1029.63 2333.36 1027.31 2333.96 1025.82 2334.65 1023.21 2335.43 1019.49L2339.32 1000.88 2346.65 1000.88 2337.66 1043.92 2330.89 1043.92 2332.51 1036.14C2327.35 1041.98 2322.07 1044.9 2316.66 1044.9 2313.34 1044.9 2310.66 1043.94 2308.62 1042.04 2306.58 1040.13 2305.56 1037.8 2305.56 1035.05 2305.56 1033.24 2306.02 1030.13 2306.94 1025.73ZM3065.85 999.911C3071.17 999.911 3075.39 1001.18 3078.49 1003.72 3080.87 1005.61 3082.06 1008.07 3082.06 1011.1 3082.06 1013.39 3081.72 1016.05 3081.05 1019.08L3078.66 1029.78C3077.9 1033.18 3077.52 1035.95 3077.52 1038.09 3077.52 1039.44 3077.82 1041.38 3078.41 1043.92L3071 1043.92C3070.59 1042.52 3070.31 1040.74 3070.15 1038.57 3067.61 1040.76 3065.16 1042.36 3062.81 1043.38 3060.46 1044.39 3057.95 1044.9 3055.27 1044.9 3051.3 1044.9 3048.1 1043.73 3045.67 1041.39 3043.24 1039.05 3042.02 1036.06 3042.02 1032.41 3042.02 1030.01 3042.57 1027.88 3043.66 1026.03 3044.76 1024.18 3046.21 1022.69 3048.02 1021.57 3049.83 1020.45 3052.04 1019.65 3054.66 1019.16 3056.31 1018.84 3059.44 1018.58 3064.05 1018.39 3068.65 1018.2 3071.96 1017.72 3073.96 1016.93 3074.52 1014.93 3074.81 1013.27 3074.81 1011.95 3074.81 1010.25 3074.19 1008.91 3072.94 1007.94 3071.24 1006.58 3068.75 1005.91 3065.48 1005.91 3062.41 1005.91 3059.89 1006.59 3057.93 1007.96 3055.97 1009.32 3054.54 1011.26 3053.65 1013.77L3046.23 1013.12C3047.75 1008.85 3050.15 1005.59 3053.43 1003.32 3056.71 1001.05 3060.85 999.911 3065.85 999.911ZM3024.73 999.911C3029.35 999.911 3033.01 1001.21 3035.71 1003.82 3038.41 1006.43 3039.76 1009.88 3039.76 1014.18L3032.55 1014.66C3032.52 1011.93 3031.73 1009.8 3030.18 1008.26 3028.63 1006.72 3026.58 1005.95 3024.04 1005.95 3021.09 1005.95 3018.54 1006.88 3016.38 1008.75 3014.22 1010.61 3012.52 1013.44 3011.29 1017.24 3010.06 1021.03 3009.45 1024.69 3009.45 1028.2 3009.45 1031.87 3010.26 1034.63 3011.88 1036.47 3013.5 1038.3 3015.5 1039.22 3017.88 1039.22 3020.26 1039.22 3022.53 1038.32 3024.71 1036.51 3026.88 1034.7 3028.59 1031.94 3029.83 1028.24L3037.17 1029.01C3035.33 1034.39 3032.72 1038.38 3029.33 1040.99 3025.94 1043.59 3022.08 1044.9 3017.76 1044.9 3013.08 1044.9 3009.29 1043.38 3006.39 1040.36 3003.49 1037.33 3002.03 1033.1 3002.03 1027.67 3002.03 1022.97 3002.97 1018.35 3004.83 1013.81 3006.69 1009.27 3009.36 1005.82 3012.83 1003.46 3016.31 1001.09 3020.27 999.911 3024.73 999.911ZM2942.73 999.911C2947.35 999.911 2951.01 1001.21 2953.71 1003.82 2956.41 1006.43 2957.76 1009.88 2957.76 1014.18L2950.55 1014.66C2950.52 1011.93 2949.73 1009.8 2948.18 1008.26 2946.63 1006.72 2944.58 1005.95 2942.04 1005.95 2939.09 1005.95 2936.54 1006.88 2934.38 1008.75 2932.22 1010.61 2930.52 1013.44 2929.29 1017.24 2928.06 1021.03 2927.45 1024.69 2927.45 1028.2 2927.45 1031.87 2928.26 1034.63 2929.88 1036.47 2931.5 1038.3 2933.5 1039.22 2935.88 1039.22 2938.26 1039.22 2940.53 1038.32 2942.71 1036.51 2944.88 1034.7 2946.59 1031.94 2947.83 1028.24L2955.17 1029.01C2953.33 1034.39 2950.72 1038.38 2947.33 1040.99 2943.94 1043.59 2940.08 1044.9 2935.76 1044.9 2931.08 1044.9 2927.29 1043.38 2924.39 1040.36 2921.49 1037.33 2920.03 1033.1 2920.03 1027.67 2920.03 1022.97 2920.97 1018.35 2922.83 1013.81 2924.69 1009.27 2927.36 1005.82 2930.83 1003.46 2934.31 1001.09 2938.27 999.911 2942.73 999.911ZM2896.85 999.911C2902.17 999.911 2906.39 1001.18 2909.49 1003.72 2911.87 1005.61 2913.06 1008.07 2913.06 1011.1 2913.06 1013.39 2912.72 1016.05 2912.05 1019.08L2909.66 1029.78C2908.9 1033.18 2908.52 1035.95 2908.52 1038.09 2908.52 1039.44 2908.82 1041.38 2909.41 1043.92L2902 1043.92C2901.59 1042.52 2901.31 1040.74 2901.15 1038.57 2898.61 1040.76 2896.16 1042.36 2893.81 1043.38 2891.46 1044.39 2888.95 1044.9 2886.27 1044.9 2882.3 1044.9 2879.1 1043.73 2876.67 1041.39 2874.24 1039.05 2873.02 1036.06 2873.02 1032.41 2873.02 1030.01 2873.57 1027.88 2874.66 1026.03 2875.76 1024.18 2877.21 1022.69 2879.02 1021.57 2880.83 1020.45 2883.04 1019.65 2885.66 1019.16 2887.31 1018.84 2890.44 1018.58 2895.05 1018.39 2899.65 1018.2 2902.96 1017.72 2904.96 1016.93 2905.52 1014.93 2905.81 1013.27 2905.81 1011.95 2905.81 1010.25 2905.19 1008.91 2903.94 1007.94 2902.24 1006.58 2899.75 1005.91 2896.49 1005.91 2893.41 1005.91 2890.89 1006.59 2888.93 1007.96 2886.97 1009.32 2885.54 1011.26 2884.65 1013.77L2877.23 1013.12C2878.75 1008.85 2881.15 1005.59 2884.43 1003.32 2887.71 1001.05 2891.85 999.911 2896.85 999.911ZM2832.85 999.911C2838.17 999.911 2842.39 1001.18 2845.49 1003.72 2847.87 1005.61 2849.06 1008.07 2849.06 1011.1 2849.06 1013.39 2848.72 1016.05 2848.05 1019.08L2845.66 1029.78C2844.9 1033.18 2844.52 1035.95 2844.52 1038.09 2844.52 1039.44 2844.82 1041.38 2845.41 1043.92L2838 1043.92C2837.59 1042.52 2837.31 1040.74 2837.15 1038.57 2834.61 1040.76 2832.16 1042.36 2829.81 1043.38 2827.46 1044.39 2824.95 1044.9 2822.27 1044.9 2818.3 1044.9 2815.1 1043.73 2812.67 1041.39 2810.24 1039.05 2809.02 1036.06 2809.02 1032.41 2809.02 1030.01 2809.57 1027.88 2810.66 1026.03 2811.76 1024.18 2813.21 1022.69 2815.02 1021.57 2816.83 1020.45 2819.04 1019.65 2821.66 1019.16 2823.31 1018.84 2826.44 1018.58 2831.05 1018.39 2835.65 1018.2 2838.96 1017.72 2840.96 1016.93 2841.52 1014.93 2841.81 1013.27 2841.81 1011.95 2841.81 1010.25 2841.19 1008.91 2839.94 1007.94 2838.24 1006.58 2835.75 1005.91 2832.49 1005.91 2829.41 1005.91 2826.89 1006.59 2824.93 1007.96 2822.97 1009.32 2821.54 1011.26 2820.65 1013.77L2813.23 1013.12C2814.75 1008.85 2817.15 1005.59 2820.43 1003.32 2823.71 1001.05 2827.85 999.911 2832.85 999.911ZM2784.99 999.911C2790.63 999.911 2794.98 1002.59 2798.04 1007.94L2799.49 1000.88 2806.22 1000.88 2797.55 1042.42C2796.6 1046.99 2795.36 1050.55 2793.82 1053.1 2792.28 1055.66 2790.14 1057.64 2787.4 1059.04 2784.65 1060.45 2781.49 1061.15 2777.89 1061.15 2774.44 1061.15 2771.46 1060.7 2768.96 1059.81 2766.46 1058.92 2764.59 1057.62 2763.36 1055.9 2762.14 1054.18 2761.52 1052.22 2761.52 1050 2761.52 1049.33 2761.59 1048.6 2761.72 1047.81L2769.14 1048.5C2769.09 1050.18 2769.29 1051.44 2769.75 1052.27 2770.21 1053.11 2770.94 1053.76 2771.94 1054.22 2773.26 1054.81 2774.98 1055.11 2777.08 1055.11 2781.51 1055.11 2784.7 1053.96 2786.65 1051.66 2787.92 1050.12 2789.09 1046.77 2790.17 1041.61L2790.9 1038.13C2787.09 1041.99 2783.04 1043.92 2778.74 1043.92 2774.39 1043.92 2770.75 1042.32 2767.82 1039.12 2764.89 1035.92 2763.43 1031.39 2763.43 1025.52 2763.43 1020.69 2764.58 1016.24 2766.89 1012.19 2769.2 1008.14 2771.95 1005.08 2775.14 1003.01 2778.33 1000.94 2781.61 999.911 2784.99 999.911ZM2717.85 999.911C2723.17 999.911 2727.39 1001.18 2730.49 1003.72 2732.87 1005.61 2734.06 1008.07 2734.06 1011.1 2734.06 1013.39 2733.72 1016.05 2733.05 1019.08L2730.66 1029.78C2729.9 1033.18 2729.52 1035.95 2729.52 1038.09 2729.52 1039.44 2729.82 1041.38 2730.41 1043.92L2723 1043.92C2722.59 1042.52 2722.31 1040.74 2722.15 1038.57 2719.61 1040.76 2717.16 1042.36 2714.81 1043.38 2712.46 1044.39 2709.95 1044.9 2707.27 1044.9 2703.3 1044.9 2700.1 1043.73 2697.67 1041.39 2695.24 1039.05 2694.02 1036.06 2694.02 1032.41 2694.02 1030.01 2694.57 1027.88 2695.66 1026.03 2696.76 1024.18 2698.21 1022.69 2700.02 1021.57 2701.83 1020.45 2704.04 1019.65 2706.66 1019.16 2708.31 1018.84 2711.44 1018.58 2716.05 1018.39 2720.65 1018.2 2723.96 1017.72 2725.96 1016.93 2726.52 1014.93 2726.81 1013.27 2726.81 1011.95 2726.81 1010.25 2726.19 1008.91 2724.94 1007.94 2723.24 1006.58 2720.75 1005.91 2717.49 1005.91 2714.41 1005.91 2711.89 1006.59 2709.93 1007.96 2707.97 1009.32 2706.54 1011.26 2705.65 1013.77L2698.23 1013.12C2699.75 1008.85 2702.15 1005.59 2705.43 1003.32 2708.71 1001.05 2712.85 999.911 2717.85 999.911ZM2691.8 999.911C2693.25 999.911 2695.05 1000.44 2697.19 1001.49L2694.19 1008.3C2692.92 1007.38 2691.53 1006.92 2690.01 1006.92 2687.45 1006.92 2684.81 1008.35 2682.11 1011.22 2679.41 1014.08 2677.29 1019.23 2675.75 1026.66L2672.1 1043.92 2665.13 1043.92 2674.13 1000.88 2680.61 1000.88 2678.79 1009.68C2681 1006.36 2683.17 1003.9 2685.29 1002.3 2687.41 1000.71 2689.58 999.911 2691.8 999.911ZM2644.89 999.911C2650.08 999.911 2654.26 1001.53 2657.43 1004.77 2660.61 1008.02 2662.2 1012.39 2662.2 1017.91 2662.2 1022.85 2661.2 1027.45 2659.2 1031.7 2657.2 1035.96 2654.35 1039.22 2650.67 1041.49 2646.98 1043.76 2643.09 1044.9 2639.01 1044.9 2635.66 1044.9 2632.62 1044.18 2629.88 1042.75 2627.13 1041.32 2625.04 1039.29 2623.59 1036.67 2622.15 1034.05 2621.43 1031.02 2621.43 1027.59 2621.43 1019.19 2623.9 1012.23 2628.84 1006.72 2632.92 1002.18 2638.27 999.911 2644.89 999.911ZM2579.73 999.911C2584.35 999.911 2588.01 1001.21 2590.71 1003.82 2593.41 1006.43 2594.76 1009.88 2594.76 1014.18L2587.55 1014.66C2587.52 1011.93 2586.73 1009.8 2585.18 1008.26 2583.63 1006.72 2581.58 1005.95 2579.04 1005.95 2576.09 1005.95 2573.54 1006.88 2571.38 1008.75 2569.22 1010.61 2567.52 1013.44 2566.29 1017.24 2565.06 1021.03 2564.45 1024.69 2564.45 1028.2 2564.45 1031.87 2565.26 1034.63 2566.88 1036.47 2568.5 1038.3 2570.5 1039.22 2572.88 1039.22 2575.26 1039.22 2577.53 1038.32 2579.71 1036.51 2581.88 1034.7 2583.59 1031.94 2584.83 1028.24L2592.17 1029.01C2590.33 1034.39 2587.72 1038.38 2584.33 1040.99 2580.94 1043.59 2577.08 1044.9 2572.76 1044.9 2568.08 1044.9 2564.29 1043.38 2561.39 1040.36 2558.49 1037.33 2557.03 1033.1 2557.03 1027.67 2557.03 1022.97 2557.97 1018.35 2559.83 1013.81 2561.69 1009.27 2564.36 1005.82 2567.83 1003.46 2571.31 1001.09 2575.27 999.911 2579.73 999.911ZM2534.89 999.911C2540.08 999.911 2544.26 1001.53 2547.43 1004.77 2550.61 1008.02 2552.2 1012.39 2552.2 1017.91 2552.2 1022.85 2551.2 1027.45 2549.2 1031.7 2547.2 1035.96 2544.35 1039.22 2540.67 1041.49 2536.98 1043.76 2533.09 1044.9 2529.01 1044.9 2525.66 1044.9 2522.62 1044.18 2519.88 1042.75 2517.13 1041.32 2515.04 1039.29 2513.59 1036.67 2512.15 1034.05 2511.43 1031.02 2511.43 1027.59 2511.43 1019.19 2513.9 1012.23 2518.84 1006.72 2522.92 1002.18 2528.27 999.911 2534.89 999.911ZM2419.85 999.911C2425.17 999.911 2429.39 1001.18 2432.49 1003.72 2434.87 1005.61 2436.06 1008.07 2436.06 1011.1 2436.06 1013.39 2435.72 1016.05 2435.05 1019.08L2432.66 1029.78C2431.9 1033.18 2431.52 1035.95 2431.52 1038.09 2431.52 1039.44 2431.82 1041.38 2432.41 1043.92L2425 1043.92C2424.59 1042.52 2424.31 1040.74 2424.15 1038.57 2421.61 1040.76 2419.16 1042.36 2416.81 1043.38 2414.46 1044.39 2411.95 1044.9 2409.27 1044.9 2405.3 1044.9 2402.1 1043.73 2399.67 1041.39 2397.24 1039.05 2396.02 1036.06 2396.02 1032.41 2396.02 1030.01 2396.57 1027.88 2397.66 1026.03 2398.76 1024.18 2400.21 1022.69 2402.02 1021.57 2403.83 1020.45 2406.04 1019.65 2408.66 1019.16 2410.31 1018.84 2413.44 1018.58 2418.05 1018.39 2422.65 1018.2 2425.96 1017.72 2427.96 1016.93 2428.52 1014.93 2428.81 1013.27 2428.81 1011.95 2428.81 1010.25 2428.19 1008.91 2426.94 1007.94 2425.24 1006.58 2422.75 1005.91 2419.49 1005.91 2416.41 1005.91 2413.89 1006.59 2411.93 1007.96 2409.97 1009.32 2408.54 1011.26 2407.65 1013.77L2400.23 1013.12C2401.75 1008.85 2404.15 1005.59 2407.43 1003.32 2410.71 1001.05 2414.85 999.911 2419.85 999.911ZM2379 999.911C2382.48 999.911 2385.22 1000.86 2387.2 1002.75 2389.19 1004.64 2390.18 1007.17 2390.18 1010.33 2390.18 1011.92 2389.83 1014.43 2389.13 1017.86L2383.66 1043.92 2376.32 1043.92 2382.04 1016.65C2382.6 1014 2382.89 1012.04 2382.89 1010.77 2382.89 1009.34 2382.39 1008.18 2381.41 1007.29 2380.42 1006.4 2379 1005.95 2377.13 1005.95 2373.38 1005.95 2370.03 1007.3 2367.1 1010 2364.17 1012.7 2362.02 1017.34 2360.64 1023.9L2356.46 1043.92 2349.13 1043.92 2358.13 1000.88 2364.77 1000.88 2363.19 1008.38C2366.08 1005.44 2368.78 1003.29 2371.3 1001.94 2373.81 1000.59 2376.38 999.911 2379 999.911ZM2259.85 999.911C2265.17 999.911 2269.39 1001.18 2272.49 1003.72 2274.87 1005.61 2276.06 1008.07 2276.06 1011.1 2276.06 1013.39 2275.72 1016.05 2275.05 1019.08L2272.66 1029.78C2271.9 1033.18 2271.52 1035.95 2271.52 1038.09 2271.52 1039.44 2271.82 1041.38 2272.41 1043.92L2265 1043.92C2264.59 1042.52 2264.31 1040.74 2264.15 1038.57 2261.61 1040.76 2259.16 1042.36 2256.81 1043.38 2254.46 1044.39 2251.95 1044.9 2249.27 1044.9 2245.3 1044.9 2242.1 1043.73 2239.67 1041.39 2237.24 1039.05 2236.02 1036.06 2236.02 1032.41 2236.02 1030.01 2236.57 1027.88 2237.66 1026.03 2238.76 1024.18 2240.21 1022.69 2242.02 1021.57 2243.83 1020.45 2246.04 1019.65 2248.66 1019.16 2250.31 1018.84 2253.44 1018.58 2258.05 1018.39 2262.65 1018.2 2265.96 1017.72 2267.96 1016.93 2268.52 1014.93 2268.81 1013.27 2268.81 1011.95 2268.81 1010.25 2268.19 1008.91 2266.94 1007.94 2265.24 1006.58 2262.75 1005.91 2259.49 1005.91 2256.41 1005.91 2253.89 1006.59 2251.93 1007.96 2249.97 1009.32 2248.54 1011.26 2247.65 1013.77L2240.23 1013.12C2241.75 1008.85 2244.15 1005.59 2247.43 1003.32 2250.71 1001.05 2254.85 999.911 2259.85 999.911ZM2233.8 999.911C2235.25 999.911 2237.05 1000.44 2239.19 1001.49L2236.19 1008.3C2234.92 1007.38 2233.53 1006.92 2232.01 1006.92 2229.45 1006.92 2226.81 1008.35 2224.11 1011.22 2221.41 1014.08 2219.29 1019.23 2217.75 1026.66L2214.1 1043.92 2207.13 1043.92 2216.13 1000.88 2222.61 1000.88 2220.79 1009.68C2223 1006.36 2225.17 1003.9 2227.29 1002.3 2229.41 1000.71 2231.58 999.911 2233.8 999.911ZM2185.85 999.911C2191.17 999.911 2195.39 1001.18 2198.49 1003.72 2200.87 1005.61 2202.06 1008.07 2202.06 1011.1 2202.06 1013.39 2201.72 1016.05 2201.05 1019.08L2198.66 1029.78C2197.9 1033.18 2197.52 1035.95 2197.52 1038.09 2197.52 1039.44 2197.82 1041.38 2198.41 1043.92L2191 1043.92C2190.59 1042.52 2190.31 1040.74 2190.15 1038.57 2187.61 1040.76 2185.16 1042.36 2182.81 1043.38 2180.46 1044.39 2177.95 1044.9 2175.27 1044.9 2171.3 1044.9 2168.1 1043.73 2165.67 1041.39 2163.24 1039.05 2162.02 1036.06 2162.02 1032.41 2162.02 1030.01 2162.57 1027.88 2163.66 1026.03 2164.76 1024.18 2166.21 1022.69 2168.02 1021.57 2169.83 1020.45 2172.04 1019.65 2174.66 1019.16 2176.31 1018.84 2179.44 1018.58 2184.05 1018.39 2188.65 1018.2 2191.96 1017.72 2193.96 1016.93 2194.52 1014.93 2194.81 1013.27 2194.81 1011.95 2194.81 1010.25 2194.19 1008.91 2192.94 1007.94 2191.24 1006.58 2188.75 1005.91 2185.49 1005.91 2182.41 1005.91 2179.89 1006.59 2177.93 1007.96 2175.97 1009.32 2174.54 1011.26 2173.65 1013.77L2166.23 1013.12C2167.75 1008.85 2170.15 1005.59 2173.43 1003.32 2176.71 1001.05 2180.85 999.911 2185.85 999.911ZM2142.52 999.911C2146.63 999.911 2150.04 1001.4 2152.74 1004.39 2155.44 1007.38 2156.79 1011.65 2156.79 1017.22 2156.79 1021.7 2156.05 1025.79 2154.56 1029.48 2153.08 1033.16 2151.25 1036.13 2149.09 1038.37 2146.93 1040.61 2144.74 1042.26 2142.52 1043.32 2140.31 1044.37 2138.04 1044.9 2135.72 1044.9 2130.56 1044.9 2126.56 1042.28 2123.72 1037.03L2118.86 1060.42 2111.52 1060.42 2123.96 1000.88 2130.73 1000.88 2129.48 1006.88C2131.99 1004.26 2134.24 1002.44 2136.22 1001.43 2138.21 1000.42 2140.31 999.911 2142.52 999.911ZM2091.8 999.911C2093.25 999.911 2095.05 1000.44 2097.19 1001.49L2094.19 1008.3C2092.92 1007.38 2091.53 1006.92 2090.01 1006.92 2087.45 1006.92 2084.81 1008.35 2082.11 1011.22 2079.41 1014.08 2077.29 1019.23 2075.75 1026.66L2072.1 1043.92 2065.13 1043.92 2074.13 1000.88 2080.61 1000.88 2078.79 1009.68C2081 1006.36 2083.17 1003.9 2085.29 1002.3 2087.41 1000.71 2089.58 999.911 2091.8 999.911ZM2043.85 999.911C2049.17 999.911 2053.39 1001.18 2056.49 1003.72 2058.87 1005.61 2060.06 1008.07 2060.06 1011.1 2060.06 1013.39 2059.72 1016.05 2059.05 1019.08L2056.66 1029.78C2055.9 1033.18 2055.52 1035.95 2055.52 1038.09 2055.52 1039.44 2055.82 1041.38 2056.41 1043.92L2049 1043.92C2048.59 1042.52 2048.31 1040.74 2048.15 1038.57 2045.61 1040.76 2043.16 1042.36 2040.81 1043.38 2038.46 1044.39 2035.95 1044.9 2033.27 1044.9 2029.3 1044.9 2026.1 1043.73 2023.67 1041.39 2021.24 1039.05 2020.02 1036.06 2020.02 1032.41 2020.02 1030.01 2020.57 1027.88 2021.66 1026.03 2022.76 1024.18 2024.21 1022.69 2026.02 1021.57 2027.83 1020.45 2030.04 1019.65 2032.66 1019.16 2034.31 1018.84 2037.44 1018.58 2042.05 1018.39 2046.65 1018.2 2049.96 1017.72 2051.96 1016.93 2052.52 1014.93 2052.81 1013.27 2052.81 1011.95 2052.81 1010.25 2052.19 1008.91 2050.94 1007.94 2049.24 1006.58 2046.75 1005.91 2043.49 1005.91 2040.41 1005.91 2037.89 1006.59 2035.93 1007.96 2033.97 1009.32 2032.54 1011.26 2031.65 1013.77L2024.23 1013.12C2025.75 1008.85 2028.15 1005.59 2031.43 1003.32 2034.71 1001.05 2038.85 999.911 2043.85 999.911ZM1979.61 999.911C1984.74 999.911 1988.84 1001.51 1991.91 1004.69 1994.97 1007.88 1996.51 1012.23 1996.51 1017.74 1996.51 1019.85 1996.32 1022.01 1995.94 1024.23L1964.25 1024.23C1964.14 1025.07 1964.08 1025.82 1964.08 1026.5 1964.08 1030.52 1965.01 1033.6 1966.86 1035.72 1968.71 1037.84 1970.97 1038.9 1973.65 1038.9 1976.16 1038.9 1978.63 1038.07 1981.07 1036.43 1983.5 1034.78 1985.39 1032.4 1986.74 1029.29L1993.87 1030.02C1992.85 1033.56 1990.49 1036.93 1986.8 1040.11 1983.11 1043.3 1978.72 1044.9 1973.61 1044.9 1970.42 1044.9 1967.5 1044.16 1964.83 1042.69 1962.17 1041.22 1960.15 1039.07 1958.76 1036.26 1957.36 1033.45 1956.67 1030.25 1956.67 1026.66 1956.67 1021.96 1957.76 1017.4 1959.93 1012.98 1962.11 1008.56 1964.92 1005.28 1968.38 1003.13 1971.84 1000.99 1975.58 999.911 1979.61 999.911ZM1913.26 999.911C1918.66 999.911 1922.77 1001.16 1925.6 1003.66 1928.42 1006.16 1929.89 1009.45 1929.99 1013.53L1922.82 1014.01C1922.71 1011.42 1921.79 1009.37 1920.06 1007.85 1918.34 1006.34 1915.89 1005.59 1912.73 1005.59 1910.19 1005.59 1908.22 1006.17 1906.81 1007.33 1905.41 1008.49 1904.71 1009.75 1904.71 1011.1 1904.71 1012.45 1905.31 1013.64 1906.53 1014.66 1907.34 1015.37 1909.43 1016.45 1912.81 1017.91 1918.43 1020.34 1921.97 1022.26 1923.43 1023.66 1925.75 1025.9 1926.91 1028.63 1926.91 1031.85 1926.91 1033.98 1926.26 1036.08 1924.95 1038.13 1923.64 1040.18 1921.64 1041.82 1918.95 1043.05 1916.26 1044.28 1913.09 1044.9 1909.45 1044.9 1904.48 1044.9 1900.25 1043.67 1896.76 1041.21 1893.28 1038.75 1891.63 1034.75 1891.82 1029.21L1899.15 1028.77C1899.15 1030.87 1899.48 1032.67 1900.13 1034.16 1900.77 1035.64 1901.97 1036.86 1903.71 1037.8 1905.45 1038.75 1907.49 1039.22 1909.81 1039.22 1913.05 1039.22 1915.49 1038.57 1917.11 1037.28 1918.73 1035.98 1919.54 1034.45 1919.54 1032.7 1919.54 1031.43 1919.05 1030.23 1918.08 1029.09 1917.08 1027.96 1914.64 1026.56 1910.76 1024.9 1906.89 1023.23 1904.41 1022.07 1903.33 1021.39 1901.52 1020.28 1900.15 1018.98 1899.23 1017.48 1898.32 1015.98 1897.86 1014.26 1897.86 1012.31 1897.86 1008.91 1899.21 1005.99 1901.91 1003.56 1904.61 1001.13 1908.39 999.911 1913.26 999.911ZM1869.61 999.911C1874.74 999.911 1878.84 1001.51 1881.91 1004.69 1884.97 1007.88 1886.51 1012.23 1886.51 1017.74 1886.51 1019.85 1886.32 1022.01 1885.94 1024.23L1854.25 1024.23C1854.14 1025.07 1854.08 1025.82 1854.08 1026.5 1854.08 1030.52 1855.01 1033.6 1856.86 1035.72 1858.71 1037.84 1860.97 1038.9 1863.65 1038.9 1866.16 1038.9 1868.63 1038.07 1871.07 1036.43 1873.5 1034.78 1875.39 1032.4 1876.74 1029.29L1883.87 1030.02C1882.85 1033.56 1880.49 1036.93 1876.8 1040.11 1873.11 1043.3 1868.72 1044.9 1863.61 1044.9 1860.42 1044.9 1857.5 1044.16 1854.83 1042.69 1852.17 1041.22 1850.15 1039.07 1848.76 1036.26 1847.36 1033.45 1846.67 1030.25 1846.67 1026.66 1846.67 1021.96 1847.76 1017.4 1849.93 1012.98 1852.11 1008.56 1854.92 1005.28 1858.38 1003.13 1861.84 1000.99 1865.58 999.911 1869.61 999.911ZM1800.85 999.911C1806.17 999.911 1810.39 1001.18 1813.49 1003.72 1815.87 1005.61 1817.06 1008.07 1817.06 1011.1 1817.06 1013.39 1816.72 1016.05 1816.05 1019.08L1813.66 1029.78C1812.9 1033.18 1812.52 1035.95 1812.52 1038.09 1812.52 1039.44 1812.82 1041.38 1813.41 1043.92L1806 1043.92C1805.59 1042.52 1805.31 1040.74 1805.15 1038.57 1802.61 1040.76 1800.16 1042.36 1797.81 1043.38 1795.46 1044.39 1792.95 1044.9 1790.27 1044.9 1786.3 1044.9 1783.1 1043.73 1780.67 1041.39 1778.24 1039.05 1777.02 1036.06 1777.02 1032.41 1777.02 1030.01 1777.57 1027.88 1778.66 1026.03 1779.76 1024.18 1781.21 1022.69 1783.02 1021.57 1784.83 1020.45 1787.04 1019.65 1789.66 1019.16 1791.31 1018.84 1794.44 1018.58 1799.05 1018.39 1803.65 1018.2 1806.96 1017.72 1808.96 1016.93 1809.52 1014.93 1809.81 1013.27 1809.81 1011.95 1809.81 1010.25 1809.19 1008.91 1807.94 1007.94 1806.24 1006.58 1803.75 1005.91 1800.49 1005.91 1797.41 1005.91 1794.89 1006.59 1792.93 1007.96 1790.97 1009.32 1789.54 1011.26 1788.65 1013.77L1781.23 1013.12C1782.75 1008.85 1785.15 1005.59 1788.43 1003.32 1791.71 1001.05 1795.85 999.911 1800.85 999.911ZM1775.8 999.911C1777.25 999.911 1779.05 1000.44 1781.19 1001.49L1778.19 1008.3C1776.92 1007.38 1775.53 1006.92 1774.01 1006.92 1771.45 1006.92 1768.81 1008.35 1766.11 1011.22 1763.41 1014.08 1761.29 1019.23 1759.75 1026.66L1756.1 1043.92 1749.13 1043.92 1758.13 1000.88 1764.61 1000.88 1762.79 1009.68C1765 1006.36 1767.17 1003.9 1769.29 1002.3 1771.41 1000.71 1773.58 999.911 1775.8 999.911ZM1727.85 999.911C1733.17 999.911 1737.39 1001.18 1740.49 1003.72 1742.87 1005.61 1744.06 1008.07 1744.06 1011.1 1744.06 1013.39 1743.72 1016.05 1743.05 1019.08L1740.66 1029.78C1739.9 1033.18 1739.52 1035.95 1739.52 1038.09 1739.52 1039.44 1739.82 1041.38 1740.41 1043.92L1733 1043.92C1732.59 1042.52 1732.31 1040.74 1732.15 1038.57 1729.61 1040.76 1727.16 1042.36 1724.81 1043.38 1722.46 1044.39 1719.95 1044.9 1717.27 1044.9 1713.3 1044.9 1710.1 1043.73 1707.67 1041.39 1705.24 1039.05 1704.02 1036.06 1704.02 1032.41 1704.02 1030.01 1704.57 1027.88 1705.66 1026.03 1706.76 1024.18 1708.21 1022.69 1710.02 1021.57 1711.83 1020.45 1714.04 1019.65 1716.66 1019.16 1718.31 1018.84 1721.44 1018.58 1726.05 1018.39 1730.65 1018.2 1733.96 1017.72 1735.96 1016.93 1736.52 1014.93 1736.81 1013.27 1736.81 1011.95 1736.81 1010.25 1736.19 1008.91 1734.94 1007.94 1733.24 1006.58 1730.75 1005.91 1727.49 1005.91 1724.41 1005.91 1721.89 1006.59 1719.93 1007.96 1717.97 1009.32 1716.54 1011.26 1715.65 1013.77L1708.23 1013.12C1709.75 1008.85 1712.15 1005.59 1715.43 1003.32 1718.71 1001.05 1722.85 999.911 1727.85 999.911ZM1684.52 999.911C1688.63 999.911 1692.04 1001.4 1694.74 1004.39 1697.44 1007.38 1698.79 1011.65 1698.79 1017.22 1698.79 1021.7 1698.05 1025.79 1696.56 1029.48 1695.08 1033.16 1693.25 1036.13 1691.09 1038.37 1688.93 1040.61 1686.74 1042.26 1684.52 1043.32 1682.31 1044.37 1680.04 1044.9 1677.72 1044.9 1672.56 1044.9 1668.56 1042.28 1665.72 1037.03L1660.86 1060.42 1653.52 1060.42 1665.96 1000.88 1672.73 1000.88 1671.48 1006.88C1673.99 1004.26 1676.24 1002.44 1678.22 1001.43 1680.21 1000.42 1682.31 999.911 1684.52 999.911ZM1617.23 999.911C1619.9 999.911 1622.14 1000.62 1623.93 1002.04 1625.73 1003.46 1626.91 1005.44 1627.48 1007.98 1629.67 1005.27 1631.97 1003.25 1634.39 1001.92 1636.81 1000.58 1639.35 999.911 1642.03 999.911 1645.62 999.911 1648.32 1000.76 1650.11 1002.46 1651.91 1004.17 1652.81 1006.56 1652.81 1009.64 1652.81 1010.96 1652.5 1013.15 1651.88 1016.2L1646.08 1043.92 1638.75 1043.92 1644.66 1015.47C1645.18 1013.15 1645.43 1011.49 1645.43 1010.49 1645.43 1009.08 1644.99 1007.98 1644.1 1007.17 1643.21 1006.36 1641.95 1005.95 1640.33 1005.95 1638.14 1005.95 1635.91 1006.61 1633.64 1007.94 1631.37 1009.26 1629.61 1011 1628.35 1013.14 1627.1 1015.29 1625.99 1018.59 1625.05 1023.05L1620.67 1043.92 1613.34 1043.92 1619.42 1014.87C1619.85 1012.89 1620.06 1011.49 1620.06 1010.65 1620.06 1009.25 1619.62 1008.11 1618.75 1007.25 1617.87 1006.38 1616.73 1005.95 1615.32 1005.95 1613.24 1005.95 1611.06 1006.61 1608.78 1007.94 1606.49 1009.26 1604.64 1011.1 1603.2 1013.47 1601.77 1015.83 1600.6 1019.2 1599.68 1023.58L1595.42 1043.92 1588.09 1043.92 1597.08 1000.88 1604.42 1000.88 1602.92 1007.98C1605.65 1004.92 1608.09 1002.82 1610.24 1001.65 1612.38 1000.49 1614.71 999.911 1617.23 999.911ZM1567.85 999.911C1573.17 999.911 1577.39 1001.18 1580.49 1003.72 1582.87 1005.61 1584.06 1008.07 1584.06 1011.1 1584.06 1013.39 1583.72 1016.05 1583.05 1019.08L1580.66 1029.78C1579.9 1033.18 1579.52 1035.95 1579.52 1038.09 1579.52 1039.44 1579.82 1041.38 1580.41 1043.92L1573 1043.92C1572.59 1042.52 1572.31 1040.74 1572.15 1038.57 1569.61 1040.76 1567.16 1042.36 1564.81 1043.38 1562.46 1044.39 1559.95 1044.9 1557.27 1044.9 1553.3 1044.9 1550.1 1043.73 1547.67 1041.39 1545.24 1039.05 1544.02 1036.06 1544.02 1032.41 1544.02 1030.01 1544.57 1027.88 1545.66 1026.03 1546.76 1024.18 1548.21 1022.69 1550.02 1021.57 1551.83 1020.45 1554.04 1019.65 1556.66 1019.16 1558.31 1018.84 1561.44 1018.58 1566.05 1018.39 1570.65 1018.2 1573.96 1017.72 1575.96 1016.93 1576.52 1014.93 1576.81 1013.27 1576.81 1011.95 1576.81 1010.25 1576.19 1008.91 1574.94 1007.94 1573.24 1006.58 1570.75 1005.91 1567.49 1005.91 1564.41 1005.91 1561.89 1006.59 1559.93 1007.96 1557.97 1009.32 1556.54 1011.26 1555.65 1013.77L1548.23 1013.12C1549.75 1008.85 1552.15 1005.59 1555.43 1003.32 1558.71 1001.05 1562.85 999.911 1567.85 999.911ZM1479.85 999.911C1485.17 999.911 1489.39 1001.18 1492.49 1003.72 1494.87 1005.61 1496.06 1008.07 1496.06 1011.1 1496.06 1013.39 1495.72 1016.05 1495.05 1019.08L1492.66 1029.78C1491.9 1033.18 1491.52 1035.95 1491.52 1038.09 1491.52 1039.44 1491.82 1041.38 1492.41 1043.92L1485 1043.92C1484.59 1042.52 1484.31 1040.74 1484.15 1038.57 1481.61 1040.76 1479.16 1042.36 1476.81 1043.38 1474.46 1044.39 1471.95 1044.9 1469.27 1044.9 1465.3 1044.9 1462.1 1043.73 1459.67 1041.39 1457.24 1039.05 1456.02 1036.06 1456.02 1032.41 1456.02 1030.01 1456.57 1027.88 1457.66 1026.03 1458.76 1024.18 1460.21 1022.69 1462.02 1021.57 1463.83 1020.45 1466.04 1019.65 1468.66 1019.16 1470.31 1018.84 1473.44 1018.58 1478.05 1018.39 1482.65 1018.2 1485.96 1017.72 1487.96 1016.93 1488.52 1014.93 1488.81 1013.27 1488.81 1011.95 1488.81 1010.25 1488.19 1008.91 1486.94 1007.94 1485.24 1006.58 1482.75 1005.91 1479.49 1005.91 1476.41 1005.91 1473.89 1006.59 1471.93 1007.96 1469.97 1009.32 1468.54 1011.26 1467.65 1013.77L1460.23 1013.12C1461.75 1008.85 1464.15 1005.59 1467.43 1003.32 1470.71 1001.05 1474.85 999.911 1479.85 999.911ZM1440 999.911C1443.48 999.911 1446.22 1000.86 1448.2 1002.75 1450.19 1004.64 1451.18 1007.17 1451.18 1010.33 1451.18 1011.92 1450.83 1014.43 1450.13 1017.86L1444.66 1043.92 1437.32 1043.92 1443.04 1016.65C1443.6 1014 1443.89 1012.04 1443.89 1010.77 1443.89 1009.34 1443.39 1008.18 1442.41 1007.29 1441.42 1006.4 1440 1005.95 1438.13 1005.95 1434.38 1005.95 1431.03 1007.3 1428.1 1010 1425.17 1012.7 1423.02 1017.34 1421.64 1023.9L1417.46 1043.92 1410.13 1043.92 1419.13 1000.88 1425.77 1000.88 1424.19 1008.38C1427.08 1005.44 1429.78 1003.29 1432.3 1001.94 1434.81 1000.59 1437.38 999.911 1440 999.911ZM2979.11 985.24 2975.83 1000.88 2983.04 1000.88 2981.82 1006.56 2974.65 1006.56 2969.67 1030.35C2969.04 1033.37 2968.73 1035.18 2968.73 1035.78 2968.73 1036.64 2968.98 1037.3 2969.48 1037.76 2969.98 1038.22 2970.8 1038.45 2971.93 1038.45 2973.56 1038.45 2975 1038.29 2976.27 1037.97L2975.06 1043.96C2973.3 1044.42 2971.6 1044.65 2969.95 1044.65 2967.03 1044.65 2964.71 1043.94 2962.98 1042.51 2961.68 1041.42 2961.03 1039.95 2961.03 1038.09 2961.03 1037.14 2961.38 1034.97 2962.09 1031.56L2967.31 1006.56 2961.52 1006.56 2962.69 1000.88 2968.49 1000.88 2970.72 990.306ZM2617.11 985.24 2613.83 1000.88 2621.04 1000.88 2619.82 1006.56 2612.65 1006.56 2607.67 1030.35C2607.04 1033.37 2606.73 1035.18 2606.73 1035.78 2606.73 1036.64 2606.98 1037.3 2607.48 1037.76 2607.98 1038.22 2608.8 1038.45 2609.94 1038.45 2611.56 1038.45 2613 1038.29 2614.27 1037.97L2613.06 1043.96C2611.3 1044.42 2609.6 1044.65 2607.95 1044.65 2605.03 1044.65 2602.71 1043.94 2600.98 1042.51 2599.68 1041.42 2599.03 1039.95 2599.03 1038.09 2599.03 1037.14 2599.38 1034.97 2600.09 1031.56L2605.31 1006.56 2599.52 1006.56 2600.69 1000.88 2606.49 1000.88 2608.72 990.306ZM1952.11 985.24 1948.83 1000.88 1956.04 1000.88 1954.82 1006.56 1947.65 1006.56 1942.67 1030.35C1942.04 1033.37 1941.73 1035.18 1941.73 1035.78 1941.73 1036.64 1941.98 1037.3 1942.48 1037.76 1942.98 1038.22 1943.8 1038.45 1944.94 1038.45 1946.56 1038.45 1948 1038.29 1949.27 1037.97L1948.06 1043.96C1946.3 1044.42 1944.6 1044.65 1942.95 1044.65 1940.03 1044.65 1937.71 1043.94 1935.98 1042.51 1934.68 1041.42 1934.03 1039.95 1934.03 1038.09 1934.03 1037.14 1934.38 1034.97 1935.09 1031.56L1940.31 1006.56 1934.52 1006.56 1935.69 1000.88 1941.49 1000.88 1943.72 990.306ZM2994.29 984.511 3001.58 984.511 2999.84 992.819 2992.54 992.819ZM2899.48 984.511 2908.72 984.511 2897.94 995.656 2891.87 995.656ZM2864.96 984.511 2872.3 984.511 2859.9 1043.92 2852.56 1043.92ZM2503.72 984.511 2511.02 984.511 2498.62 1043.92 2491.85 1043.92 2493.15 1037.68C2488.96 1042.49 2484.58 1044.9 2480.02 1044.9 2475.94 1044.9 2472.54 1043.39 2469.82 1040.38 2467.11 1037.37 2465.75 1033 2465.75 1027.27 2465.75 1022.03 2466.82 1017.24 2468.97 1012.9 2471.12 1008.56 2473.81 1005.31 2477.04 1003.15 2480.26 1000.99 2483.5 999.911 2486.74 999.911 2492.09 999.911 2496.13 1002.49 2498.86 1007.65ZM2012.96 984.511 2020.3 984.511 2007.9 1043.92 2000.56 1043.92ZM1570.48 984.511 1579.72 984.511 1568.94 995.656 1562.87 995.656ZM1535.96 984.511 1543.3 984.511 1530.9 1043.92 1523.56 1043.92ZM1363.83 984.511 1371.77 984.511 1364.15 1021.03C1363.53 1024.05 1363.22 1026.29 1363.22 1027.75 1363.22 1030.94 1364.48 1033.51 1366.99 1035.45 1369.5 1037.4 1372.66 1038.37 1376.47 1038.37 1379.5 1038.37 1382.31 1037.68 1384.92 1036.28 1387.53 1034.89 1389.59 1032.85 1391.1 1030.14 1392.61 1027.44 1393.98 1023.13 1395.19 1017.22L1402.04 984.511 1409.99 984.511 1402.73 1019.36C1401.49 1025.31 1399.86 1030.02 1397.83 1033.49 1395.8 1036.96 1392.99 1039.74 1389.4 1041.84 1385.81 1043.93 1381.63 1044.98 1376.88 1044.98 1372.39 1044.98 1368.51 1044.23 1365.22 1042.75 1361.94 1041.26 1359.48 1039.21 1357.85 1036.59 1356.21 1033.97 1355.4 1031 1355.4 1027.67 1355.4 1025.59 1355.95 1022.01 1357.06 1016.93Z" fill="url(#fill1)" fill-rule="evenodd"/><text fill="#000000" fill-opacity="0" font-family="Arial,Arial_MSFontService,sans-serif" font-size="76.6372" x="1355.4" y="1051.57">Una lmpara estelar para una doctora galctica</text></g></svg>